<?xml version="1.0" encoding="UTF-8" standalone="no"?>
<!-- Created with Inkscape (http://www.inkscape.org/) -->

<svg
   width="27.139811mm"
   height="31.338831mm"
   viewBox="0 0 27.139811 31.338831"
   version="1.1"
   id="svg1"
   xml:space="preserve"
   inkscape:version="1.3 (0e150ed6c4, 2023-07-21)"
   sodipodi:docname="ols-logo.svg"
   xmlns:inkscape="http://www.inkscape.org/namespaces/inkscape"
   xmlns:sodipodi="http://sodipodi.sourceforge.net/DTD/sodipodi-0.dtd"
   xmlns="http://www.w3.org/2000/svg"
   xmlns:svg="http://www.w3.org/2000/svg"><sodipodi:namedview
     id="namedview1"
     pagecolor="#ffffff"
     bordercolor="#000000"
     borderopacity="0.25"
     inkscape:showpageshadow="2"
     inkscape:pageopacity="0.0"
     inkscape:pagecheckerboard="0"
     inkscape:deskcolor="#d1d1d1"
     inkscape:document-units="mm"
     inkscape:zoom="3.0110567"
     inkscape:cx="100.46307"
     inkscape:cy="27.06691"
     inkscape:window-width="2556"
     inkscape:window-height="1401"
     inkscape:window-x="0"
     inkscape:window-y="0"
     inkscape:window-maximized="1"
     inkscape:current-layer="layer1"
     showgrid="false" /><defs
     id="defs1"><marker
       style="overflow:visible"
       id="Arrow1Lend"
       refX="0"
       refY="0"
       orient="auto"
       inkscape:stockid="Arrow1Lend"
       inkscape:isstock="true"><path
         transform="matrix(-0.8,0,0,-0.8,-10,0)"
         style="fill:context-stroke;fill-rule:evenodd;stroke:context-stroke;stroke-width:1pt"
         d="M 0,0 5,-5 -12.5,0 5,5 Z"
         id="path174382" /></marker><inkscape:path-effect
       effect="bspline"
       id="path-effect174377"
       is_visible="true"
       lpeversion="1"
       weight="33.333333"
       steps="2"
       helper_size="0"
       apply_no_weight="true"
       apply_with_weight="true"
       only_selected="false"
       uniform="false" /><inkscape:path-effect
       effect="bspline"
       id="path-effect135608"
       is_visible="true"
       lpeversion="1"
       weight="33.333333"
       steps="2"
       helper_size="0"
       apply_no_weight="true"
       apply_with_weight="true"
       only_selected="false"
       uniform="false" /><inkscape:path-effect
       effect="bspline"
       id="path-effect135604"
       is_visible="true"
       lpeversion="1"
       weight="33.333333"
       steps="2"
       helper_size="0"
       apply_no_weight="true"
       apply_with_weight="true"
       only_selected="false"
       uniform="false" /><inkscape:path-effect
       effect="bspline"
       id="path-effect135600"
       is_visible="true"
       lpeversion="1"
       weight="33.333333"
       steps="2"
       helper_size="0"
       apply_no_weight="true"
       apply_with_weight="true"
       only_selected="false"
       uniform="false" /><inkscape:path-effect
       effect="bspline"
       id="path-effect135596"
       is_visible="true"
       lpeversion="1"
       weight="33.333333"
       steps="2"
       helper_size="0"
       apply_no_weight="true"
       apply_with_weight="true"
       only_selected="false"
       uniform="false" /><inkscape:path-effect
       effect="bspline"
       id="path-effect135592"
       is_visible="true"
       lpeversion="1"
       weight="33.333333"
       steps="2"
       helper_size="0"
       apply_no_weight="true"
       apply_with_weight="true"
       only_selected="false"
       uniform="false" /><inkscape:path-effect
       effect="bspline"
       id="path-effect135588"
       is_visible="true"
       lpeversion="1"
       weight="33.333333"
       steps="2"
       helper_size="0"
       apply_no_weight="true"
       apply_with_weight="true"
       only_selected="false"
       uniform="false" /><inkscape:path-effect
       effect="bspline"
       id="path-effect74261"
       is_visible="true"
       lpeversion="1"
       weight="33.333333"
       steps="2"
       helper_size="0"
       apply_no_weight="true"
       apply_with_weight="true"
       only_selected="false"
       uniform="false" /><inkscape:path-effect
       effect="bspline"
       id="path-effect74257"
       is_visible="true"
       lpeversion="1"
       weight="33.333333"
       steps="2"
       helper_size="0"
       apply_no_weight="true"
       apply_with_weight="true"
       only_selected="false"
       uniform="false" /><inkscape:path-effect
       effect="bspline"
       id="path-effect74253"
       is_visible="true"
       lpeversion="1"
       weight="33.333333"
       steps="2"
       helper_size="0"
       apply_no_weight="true"
       apply_with_weight="true"
       only_selected="false"
       uniform="false" /><inkscape:path-effect
       effect="bspline"
       id="path-effect74183"
       is_visible="true"
       lpeversion="1"
       weight="33.333333"
       steps="2"
       helper_size="0"
       apply_no_weight="true"
       apply_with_weight="true"
       only_selected="false"
       uniform="false" /><inkscape:path-effect
       effect="bspline"
       id="path-effect74179"
       is_visible="true"
       lpeversion="1"
       weight="33.333333"
       steps="2"
       helper_size="0"
       apply_no_weight="true"
       apply_with_weight="true"
       only_selected="false"
       uniform="false" /><inkscape:path-effect
       effect="bspline"
       id="path-effect74175"
       is_visible="true"
       lpeversion="1"
       weight="33.333333"
       steps="2"
       helper_size="0"
       apply_no_weight="true"
       apply_with_weight="true"
       only_selected="false"
       uniform="false" /><marker
       style="overflow:visible"
       id="Arrow2Mstart"
       refX="0"
       refY="0"
       orient="auto"
       inkscape:stockid="Arrow2Mstart"
       inkscape:isstock="true"><path
         transform="scale(0.6)"
         d="M 8.7185878,4.0337352 -2.2072895,0.01601326 8.7185884,-4.0017078 c -1.7454984,2.3720609 -1.7354408,5.6174519 -6e-7,8.035443 z"
         style="fill:context-stroke;fill-rule:evenodd;stroke:context-stroke;stroke-width:0.625;stroke-linejoin:round"
         id="path52837" /></marker><marker
       style="overflow:visible"
       id="marker53590"
       refX="0"
       refY="0"
       orient="auto"
       inkscape:stockid="Arrow2Sstart"
       inkscape:isstock="true"><path
         transform="matrix(0.3,0,0,0.3,-0.69,0)"
         d="M 8.7185878,4.0337352 -2.2072895,0.01601326 8.7185884,-4.0017078 c -1.7454984,2.3720609 -1.7354408,5.6174519 -6e-7,8.035443 z"
         style="fill:context-stroke;fill-rule:evenodd;stroke:context-stroke;stroke-width:0.625;stroke-linejoin:round"
         id="path53588" /></marker><marker
       style="overflow:visible"
       id="Arrow2Mend"
       refX="0"
       refY="0"
       orient="auto"
       inkscape:stockid="Arrow2Mend"
       inkscape:isstock="true"><path
         transform="scale(-0.6)"
         d="M 8.7185878,4.0337352 -2.2072895,0.01601326 8.7185884,-4.0017078 c -1.7454984,2.3720609 -1.7354408,5.6174519 -6e-7,8.035443 z"
         style="fill:context-stroke;fill-rule:evenodd;stroke:context-stroke;stroke-width:0.625;stroke-linejoin:round"
         id="path52840" /></marker><marker
       style="overflow:visible"
       id="Arrow1Send"
       refX="0"
       refY="0"
       orient="auto"
       inkscape:stockid="Arrow1Send"
       inkscape:isstock="true"><path
         transform="matrix(-0.2,0,0,-0.2,-1.2,0)"
         style="fill:context-stroke;fill-rule:evenodd;stroke:context-stroke;stroke-width:1pt"
         d="M 0,0 5,-5 -12.5,0 5,5 Z"
         id="path52828" /></marker><marker
       style="overflow:visible"
       id="Arrow2Sstart"
       refX="0"
       refY="0"
       orient="auto"
       inkscape:stockid="Arrow2Sstart"
       inkscape:isstock="true"><path
         transform="matrix(0.3,0,0,0.3,-0.69,0)"
         d="M 8.7185878,4.0337352 -2.2072895,0.01601326 8.7185884,-4.0017078 c -1.7454984,2.3720609 -1.7354408,5.6174519 -6e-7,8.035443 z"
         style="fill:context-stroke;fill-rule:evenodd;stroke:context-stroke;stroke-width:0.625;stroke-linejoin:round"
         id="path52843" /></marker><clipPath
       clipPathUnits="userSpaceOnUse"
       id="clipPath76"><path
         d="M 0,0 H 1024 V 768 H 0 Z"
         id="path74" /></clipPath><clipPath
       clipPathUnits="userSpaceOnUse"
       id="clipPath76-6"><path
         d="M 0,0 H 1024 V 768 H 0 Z"
         id="path74-7" /></clipPath><clipPath
       clipPathUnits="userSpaceOnUse"
       id="clipPath76-3"><path
         d="M 0,0 H 1024 V 768 H 0 Z"
         id="path74-75" /></clipPath><linearGradient
       x1="290.61743"
       y1="576.64008"
       x2="295.45389"
       y2="543.3609"
       id="linearGradient-2"
       gradientTransform="matrix(1.385132,0,0,0.72195288,48,217)"
       gradientUnits="userSpaceOnUse"><stop
         stop-color="#FFFFFF"
         offset="0%"
         id="stop23" /><stop
         stop-color="#F9F9F9"
         offset="9%"
         id="stop25" /><stop
         stop-color="#E8E8E8"
         offset="22%"
         id="stop27" /><stop
         stop-color="#CCCCCC"
         offset="36%"
         id="stop29" /><stop
         stop-color="#A5A5A5"
         offset="52%"
         id="stop31" /><stop
         stop-color="#727272"
         offset="69%"
         id="stop33" /><stop
         stop-color="#363636"
         offset="86%"
         id="stop35" /><stop
         stop-color="#000000"
         offset="100%"
         id="stop37" /></linearGradient><linearGradient
       x1="349.45541"
       y1="191.25169"
       x2="344.03516"
       y2="211.04266"
       id="linearGradient-3"
       gradientTransform="matrix(1.3220407,0,0,0.75640634,48,217)"
       gradientUnits="userSpaceOnUse"><stop
         stop-color="#FFFFFF"
         offset="0%"
         id="stop40" /><stop
         stop-color="#F9F9F9"
         offset="9%"
         id="stop42" /><stop
         stop-color="#E8E8E8"
         offset="22%"
         id="stop44" /><stop
         stop-color="#CCCCCC"
         offset="36%"
         id="stop46" /><stop
         stop-color="#A5A5A5"
         offset="52%"
         id="stop48" /><stop
         stop-color="#727272"
         offset="69%"
         id="stop50" /><stop
         stop-color="#363636"
         offset="86%"
         id="stop52" /><stop
         stop-color="#000000"
         offset="100%"
         id="stop54" /></linearGradient><linearGradient
       x1="975.97662"
       y1="350.42932"
       x2="888.50842"
       y2="311.48557"
       id="linearGradient-4"
       gradientTransform="matrix(0.86093543,0,0,1.1615273,48,217)"
       gradientUnits="userSpaceOnUse"><stop
         stop-color="#FFFFFF"
         offset="0%"
         id="stop57" /><stop
         stop-color="#F9F9F9"
         offset="9%"
         id="stop59" /><stop
         stop-color="#E8E8E8"
         offset="22%"
         id="stop61" /><stop
         stop-color="#CCCCCC"
         offset="36%"
         id="stop63" /><stop
         stop-color="#A5A5A5"
         offset="52%"
         id="stop65" /><stop
         stop-color="#727272"
         offset="69%"
         id="stop67" /><stop
         stop-color="#363636"
         offset="86%"
         id="stop69" /><stop
         stop-color="#000000"
         offset="100%"
         id="stop71" /></linearGradient><linearGradient
       x1="213.13725"
       y1="195.21021"
       x2="181.81"
       y2="182.73062"
       id="linearGradient-5"
       gradientTransform="matrix(0.88183983,0,0,1.1339928,48,217)"
       gradientUnits="userSpaceOnUse"><stop
         stop-color="#FFFFFF"
         offset="0%"
         id="stop74" /><stop
         stop-color="#F9F9F9"
         offset="9%"
         id="stop76" /><stop
         stop-color="#E8E8E8"
         offset="22%"
         id="stop78" /><stop
         stop-color="#CCCCCC"
         offset="36%"
         id="stop80" /><stop
         stop-color="#A5A5A5"
         offset="52%"
         id="stop82" /><stop
         stop-color="#727272"
         offset="69%"
         id="stop84" /><stop
         stop-color="#363636"
         offset="86%"
         id="stop86" /><stop
         stop-color="#000000"
         offset="100%"
         id="stop88" /></linearGradient><linearGradient
       x1="352.7309"
       y1="324.54117"
       x2="306.13147"
       y2="350.92447"
       id="linearGradient-6"
       gradientTransform="matrix(1.0609817,0,0,0.94252334,48,217)"
       gradientUnits="userSpaceOnUse"><stop
         stop-color="#FFFFFF"
         offset="0%"
         id="stop91" /><stop
         stop-color="#F9F9F9"
         offset="9%"
         id="stop93" /><stop
         stop-color="#E8E8E8"
         offset="22%"
         id="stop95" /><stop
         stop-color="#CCCCCC"
         offset="36%"
         id="stop97" /><stop
         stop-color="#A5A5A5"
         offset="52%"
         id="stop99" /><stop
         stop-color="#727272"
         offset="69%"
         id="stop101" /><stop
         stop-color="#363636"
         offset="86%"
         id="stop103" /><stop
         stop-color="#000000"
         offset="100%"
         id="stop105" /></linearGradient><linearGradient
       x1="457.04675"
       y1="108.92698"
       x2="463.79419"
       y2="27.997782"
       id="linearGradient-7"
       gradientTransform="matrix(0.57116907,0,0,1.7507951,269.31791,291.86647)"
       gradientUnits="userSpaceOnUse"><stop
         stop-color="#FFFFFF"
         offset="0%"
         id="stop108" /><stop
         stop-color="#F9F9F9"
         offset="9%"
         id="stop110" /><stop
         stop-color="#E8E8E8"
         offset="22%"
         id="stop112" /><stop
         stop-color="#CCCCCC"
         offset="36%"
         id="stop114" /><stop
         stop-color="#A5A5A5"
         offset="52%"
         id="stop116" /><stop
         stop-color="#727272"
         offset="69%"
         id="stop118" /><stop
         stop-color="#363636"
         offset="86%"
         id="stop120" /><stop
         stop-color="#000000"
         offset="100%"
         id="stop122" /></linearGradient><linearGradient
       x1="602.08826"
       y1="124.95577"
       x2="609.25262"
       y2="42.337864"
       id="linearGradient-8"
       gradientTransform="matrix(0.5824423,0,0,1.7169083,269.31791,291.86647)"
       gradientUnits="userSpaceOnUse"><stop
         stop-color="#FFFFFF"
         offset="0%"
         id="stop125" /><stop
         stop-color="#F9F9F9"
         offset="9%"
         id="stop127" /><stop
         stop-color="#E8E8E8"
         offset="22%"
         id="stop129" /><stop
         stop-color="#CCCCCC"
         offset="36%"
         id="stop131" /><stop
         stop-color="#A5A5A5"
         offset="52%"
         id="stop133" /><stop
         stop-color="#727272"
         offset="69%"
         id="stop135" /><stop
         stop-color="#363636"
         offset="86%"
         id="stop137" /><stop
         stop-color="#000000"
         offset="100%"
         id="stop139" /></linearGradient><linearGradient
       x1="465.26596"
       y1="197.21082"
       x2="487.91666"
       y2="76.248787"
       id="linearGradient-9"
       gradientTransform="matrix(0.85399745,0,0,1.1709637,269.31791,291.86647)"
       gradientUnits="userSpaceOnUse"><stop
         stop-color="#FFFFFF"
         offset="0%"
         id="stop142" /><stop
         stop-color="#F9F9F9"
         offset="9%"
         id="stop144" /><stop
         stop-color="#E8E8E8"
         offset="22%"
         id="stop146" /><stop
         stop-color="#CCCCCC"
         offset="36%"
         id="stop148" /><stop
         stop-color="#A5A5A5"
         offset="52%"
         id="stop150" /><stop
         stop-color="#727272"
         offset="69%"
         id="stop152" /><stop
         stop-color="#363636"
         offset="86%"
         id="stop154" /><stop
         stop-color="#000000"
         offset="100%"
         id="stop156" /></linearGradient><linearGradient
       x1="75.763809"
       y1="113.18295"
       x2="93.759315"
       y2="1.0758858"
       id="linearGradient-10"
       gradientTransform="matrix(0.79060519,0,0,1.2648538,269.31791,291.86647)"
       gradientUnits="userSpaceOnUse"><stop
         stop-color="#FFFFFF"
         offset="0%"
         id="stop159" /><stop
         stop-color="#F9F9F9"
         offset="9%"
         id="stop161" /><stop
         stop-color="#E8E8E8"
         offset="22%"
         id="stop163" /><stop
         stop-color="#CCCCCC"
         offset="36%"
         id="stop165" /><stop
         stop-color="#A5A5A5"
         offset="52%"
         id="stop167" /><stop
         stop-color="#727272"
         offset="69%"
         id="stop169" /><stop
         stop-color="#363636"
         offset="86%"
         id="stop171" /><stop
         stop-color="#000000"
         offset="100%"
         id="stop173" /></linearGradient><linearGradient
       x1="188.2394"
       y1="124.39379"
       x2="204.30077"
       y2="16.336622"
       id="linearGradient-11"
       gradientTransform="matrix(0.7626285,0,0,1.3112544,269.31791,291.86647)"
       gradientUnits="userSpaceOnUse"><stop
         stop-color="#FFFFFF"
         offset="0%"
         id="stop176" /><stop
         stop-color="#F9F9F9"
         offset="9%"
         id="stop178" /><stop
         stop-color="#E8E8E8"
         offset="22%"
         id="stop180" /><stop
         stop-color="#CCCCCC"
         offset="36%"
         id="stop182" /><stop
         stop-color="#A5A5A5"
         offset="52%"
         id="stop184" /><stop
         stop-color="#727272"
         offset="69%"
         id="stop186" /><stop
         stop-color="#363636"
         offset="86%"
         id="stop188" /><stop
         stop-color="#000000"
         offset="100%"
         id="stop190" /></linearGradient><style
       id="style1">&#10;      .cls-1 {&#10;        clip-path: url(#clippath);&#10;      }&#10;&#10;      .cls-2 {&#10;        fill: none;&#10;      }&#10;&#10;      .cls-2, .cls-3, .cls-4 {&#10;        stroke-width: 0px;&#10;      }&#10;&#10;      .cls-3 {&#10;        fill: url(#linear-gradient);&#10;      }&#10;&#10;      .cls-4 {&#10;        fill: #fff;&#10;      }&#10;    </style><clipPath
       id="clippath"><path
         class="cls-2"
         d="m 81.59,110.81 c -7.8,0 -11.7,-4.05 -11.7,-12.15 0,-8.1 3.9,-12.15 11.7,-12.15 7.8,0 12.15,4.05 12.15,12.15 0,8.1 -4.05,12.15 -12.15,12.15 z m -4.95,12.6 c 0,-8.1 -3.9,-12.15 -11.7,-12.15 -7.8,0 -12.15,4.05 -12.15,12.15 0,8.1 4.05,12.15 12.15,12.15 8.1,0 11.7,-4.05 11.7,-12.15 z m 38.25,-47.7 c 0,-8.1 -4.05,-12.15 -12.15,-12.15 -8.1,0 -12.15,4.05 -12.15,12.15 0,8.1 4.05,12.15 12.15,12.15 8.1,0 12.15,-4.05 12.15,-12.15 z M 51.44,197.66 c 8.1,0 12.15,-4.05 12.15,-12.15 0,-8.1 -4.05,-12.15 -12.15,-12.15 -8.1,0 -12.15,4.05 -12.15,12.15 0,8.1 4.05,12.15 12.15,12.15 z M 86.99,62.21 c 8.1,0 12.15,-4.05 12.15,-12.15 0,-8.1 -4.05,-12.15 -12.15,-12.15 -8.1,0 -12.15,4.05 -12.15,12.15 0,8.1 4.05,12.15 12.15,12.15 z m 15.75,244.35 c 8.1,0 12.15,-4.05 12.15,-12.15 0,-8.1 -4.05,-12.15 -12.15,-12.15 -8.1,0 -12.15,4.05 -12.15,12.15 0,8.1 4.05,12.15 12.15,12.15 z m -22.5,-46.8 c -8.1,0 -12.15,4.05 -12.15,12.15 0,8.1 4.05,12.15 12.15,12.15 8.1,0 12.15,-4.05 12.15,-12.15 0,-8.1 -4.05,-12.15 -12.15,-12.15 z M 113.09,46.01 c 8.1,0 12.15,-4.05 12.15,-12.15 0,-8.1 -4.05,-12.15 -12.15,-12.15 -8.1,0 -12.15,4.05 -12.15,12.15 0,8.1 4.05,12.15 12.15,12.15 z m -48.6,189 c -8.1,0 -12.15,4.05 -12.15,12.15 0,8.1 4.05,12.15 12.15,12.15 8.1,0 12.15,-4.05 12.15,-12.15 0,-8.1 -4.05,-12.15 -12.15,-12.15 z m -8.55,-31.5 c -8.1,0 -12.15,4.05 -12.15,12.15 0,8.1 4.05,12.15 12.15,12.15 8.1,0 12.15,-4.05 12.15,-12.15 0,-8.1 -4.05,-12.15 -12.15,-12.15 z m -12.6,42.3 c 0,-8.1 -4.05,-12.15 -12.15,-12.15 -8.1,0 -12.15,4.05 -12.15,12.15 0,8.1 4.05,12.15 12.15,12.15 8.1,0 12.15,-4.05 12.15,-12.15 z m 14.4,29.25 c 0,-8.1 -4.05,-12.15 -12.15,-12.15 -8.1,0 -12.15,4.05 -12.15,12.15 0,8.1 4.05,12.15 12.15,12.15 8.1,0 12.15,-4.05 12.15,-12.15 z m -22.5,-59.85 c 0,-8.1 -4.05,-12.15 -12.15,-12.15 -8.1,0 -12.15,4.05 -12.15,12.15 0,8.1 4.05,12.15 12.15,12.15 8.1,0 12.15,-4.05 12.15,-12.15 z m 28.8,72 c -8.1,0 -12.15,4.05 -12.15,12.15 0,8.1 4.05,12.15 12.15,12.15 8.1,0 12.15,-4.05 12.15,-12.15 0,-8.1 -4.05,-12.15 -12.15,-12.15 z M 32.09,136.01 c 8.1,0 12.15,-4.05 12.15,-12.15 0,-8.1 -4.05,-12.15 -12.15,-12.15 -8.1,0 -12.15,4.05 -12.15,12.15 0,8.1 4.05,12.15 12.15,12.15 z m -11.25,60.75 c 8.1,0 12.15,-4.05 12.15,-12.15 0,-8.1 -4.05,-12.15 -12.15,-12.15 -8.1,0 -12.15,4.05 -12.15,12.15 0,8.1 4.05,12.15 12.15,12.15 z m 25.2,-89.1 c 8.1,0 12.15,-4.05 12.15,-12.15 0,-8.1 -4.05,-12.15 -12.15,-12.15 -8.1,0 -12.15,4.05 -12.15,12.15 0,8.1 4.05,12.15 12.15,12.15 z m 18,-24.75 c 8.1,0 12.15,-4.05 12.15,-12.15 0,-8.1 -4.05,-12.15 -12.15,-12.15 -8.1,0 -11.7,4.05 -11.7,12.15 0,8.1 3.9,12.15 11.7,12.15 z m -40.5,84.15 c 8.1,0 12.15,-4.05 12.15,-12.15 0,-8.1 -4.05,-12.15 -12.15,-12.15 -8.1,0 -12.15,4.05 -12.15,12.15 0,8.1 4.05,12.15 12.15,12.15 z M 203.99,49.16 c 0,8.1 4.05,12.15 12.15,12.15 8.1,0 11.7,-4.05 11.7,-12.15 0,-8.1 -3.9,-12.15 -11.7,-12.15 -7.8,0 -12.15,4.05 -12.15,12.15 z m 106.2,85.95 c 8.1,0 12.15,-4.05 12.15,-12.15 0,-8.1 -4.05,-12.15 -12.15,-12.15 -8.1,0 -12.15,4.05 -12.15,12.15 0,8.1 4.05,12.15 12.15,12.15 z m 8.55,31.05 c 8.1,0 12.15,-4.05 12.15,-12.15 0,-8.1 -4.05,-12.15 -12.15,-12.15 -8.1,0 -12.15,4.05 -12.15,12.15 0,8.1 4.05,12.15 12.15,12.15 z m -46.8,-102.6 c -8.1,0 -12.15,4.05 -12.15,12.15 0,8.1 4.05,12.15 12.15,12.15 8.1,0 12.15,-4.05 12.15,-12.15 0,-8.1 -4.05,-12.15 -12.15,-12.15 z m 16.2,-1.35 c 8.1,0 12.15,-4.05 12.15,-12.15 0,-8.1 -4.05,-12.15 -12.15,-12.15 -8.1,0 -12.15,4.05 -12.15,12.15 0,8.1 4.05,12.15 12.15,12.15 z m 22.5,20.7 c 8.1,0 12.15,-4.05 12.15,-12.15 0,-8.1 -4.05,-12.15 -12.15,-12.15 -8.1,0 -12.15,4.05 -12.15,12.15 0,8.1 4.05,12.15 12.15,12.15 z m 20.7,41.4 c 0,8.1 4.05,12.15 12.15,12.15 8.1,0 12.15,-4.05 12.15,-12.15 0,-8.1 -4.05,-12.15 -12.15,-12.15 -8.1,0 -12.15,4.05 -12.15,12.15 z m 8.1,30.6 c 0,8.1 4.05,12.15 12.15,12.15 8.1,0 12.15,-4.05 12.15,-12.15 0,-8.1 -4.05,-12.15 -12.15,-12.15 -8.1,0 -12.15,4.05 -12.15,12.15 z m -22.5,-59.85 c 0,8.1 4.05,12.15 12.15,12.15 8.1,0 12.15,-4.05 12.15,-12.15 0,-8.1 -4.05,-12.15 -12.15,-12.15 -8.1,0 -12.15,4.05 -12.15,12.15 z m -22.5,15.3 c 8.1,0 12.15,-4.05 12.15,-12.15 0,-8.1 -4.05,-12.15 -12.15,-12.15 -8.1,0 -12.15,4.05 -12.15,12.15 0,8.1 4.05,12.15 12.15,12.15 z m -60.3,-50.85 c 0,8.1 4.05,12.15 12.15,12.15 8.1,0 12.15,-4.05 12.15,-12.15 0,-8.1 -4.05,-12.15 -12.15,-12.15 -8.1,0 -12.15,4.05 -12.15,12.15 z m -60.75,-30.6 c 8.1,0 12.15,-4.05 12.15,-12.15 0,-8.1 -4.05,-12.15 -12.15,-12.15 -8.1,0 -12.15,4.05 -12.15,12.15 0,8.1 4.05,12.15 12.15,12.15 z m -30.15,21.15 c 0,8.1 4.05,12.15 12.15,12.15 8.1,0 12.15,-4.05 12.15,-12.15 0,-8.1 -4.05,-12.15 -12.15,-12.15 -8.1,0 -12.15,4.05 -12.15,12.15 z m -1.8,-15.3 c 7.8,0 11.7,-4.05 11.7,-12.15 0,-8.1 -3.9,-12.15 -11.7,-12.15 -7.8,0 -12.15,4.05 -12.15,12.15 0,8.1 4.05,12.15 12.15,12.15 z m 32.85,11.7 c 0,8.1 4.05,12.15 12.15,12.15 8.1,0 12.15,-4.05 12.15,-12.15 0,-8.1 -4.05,-12.15 -12.15,-12.15 -8.1,0 -12.15,4.05 -12.15,12.15 z m 58.95,-11.7 c 8.1,0 12.15,-4.05 12.15,-12.15 0,-8.1 -4.05,-12.15 -12.15,-12.15 -8.1,0 -12.15,4.05 -12.15,12.15 0,8.1 4.05,12.15 12.15,12.15 z m -117.9,25.65 c 0,8.1 4.05,12.15 12.15,12.15 8.1,0 12.15,-4.05 12.15,-12.15 0,-8.1 -4.05,-12.15 -12.15,-12.15 -8.1,0 -12.15,4.05 -12.15,12.15 z m 146.7,-14.4 c 8.1,0 12.15,-4.05 12.15,-12.15 0,-8.1 -4.05,-12.15 -12.15,-12.15 -8.1,0 -12.15,4.05 -12.15,12.15 0,8.1 4.05,12.15 12.15,12.15 z m -175.5,261.9 c -8.1,0 -12.15,3.9 -12.15,11.7 0,7.8 4.05,12.15 12.15,12.15 8.1,0 12.15,-4.05 12.15,-12.15 0,-8.1 -4.05,-11.7 -12.15,-11.7 z M 202.64,28.46 c 8.1,0 12.15,-4.05 12.15,-12.15 0,-8.1 -4.05,-12.15 -12.15,-12.15 -8.1,0 -12.15,4.05 -12.15,12.15 0,8.1 4.05,12.15 12.15,12.15 z M 54.14,166.61 c 8.1,0 12.15,-4.05 12.15,-12.15 0,-8.1 -4.05,-12.15 -12.15,-12.15 -8.1,0 -12.15,4.05 -12.15,12.15 0,8.1 4.05,12.15 12.15,12.15 z m 256.5,120.15 c -8.1,0 -12.15,4.05 -12.15,12.15 0,8.1 4.05,12.15 12.15,12.15 8.1,0 12.15,-4.05 12.15,-12.15 0,-8.1 -4.05,-12.15 -12.15,-12.15 z m -22.95,21.15 c -8.1,0 -12.15,4.05 -12.15,12.15 0,8.1 4.05,12.15 12.15,12.15 8.1,0 12.15,-4.05 12.15,-12.15 0,-8.1 -4.05,-12.15 -12.15,-12.15 z m -25.65,16.2 c -8.1,0 -12.15,4.05 -12.15,12.15 0,8.1 4.05,12.15 12.15,12.15 8.1,0 11.7,-4.05 11.7,-12.15 0,-8.1 -3.9,-12.15 -11.7,-12.15 z m 58.5,-96.75 c 8.1,0 12.15,-4.05 12.15,-12.15 0,-8.1 -4.05,-12.15 -12.15,-12.15 -8.1,0 -12.15,4.05 -12.15,12.15 0,8.1 4.05,12.15 12.15,12.15 z m -22.5,18.9 c 0,8.1 4.05,12.15 12.15,12.15 8.1,0 12.15,-4.05 12.15,-12.15 0,-8.1 -4.05,-12.15 -12.15,-12.15 -8.1,0 -12.15,4.05 -12.15,12.15 z m -38.25,47.7 c 0,8.1 4.05,12.15 12.15,12.15 8.1,0 12.15,-4.05 12.15,-12.15 0,-8.1 -4.05,-12.15 -12.15,-12.15 -8.1,0 -12.15,4.05 -12.15,12.15 z m 91.35,-90.9 c -8.1,0 -12.15,4.05 -12.15,12.15 0,8.1 4.05,12.15 12.15,12.15 8.1,0 12.15,-4.05 12.15,-12.15 0,-8.1 -4.05,-12.15 -12.15,-12.15 z m -238.5,121.05 c -8.1,0 -12.15,4.05 -12.15,12.15 0,8.1 4.05,12.15 12.15,12.15 8.1,0 12.15,-4.05 12.15,-12.15 0,-8.1 -4.05,-12.15 -12.15,-12.15 z m 229.95,-90 c -8.1,0 -12.15,4.05 -12.15,12.15 0,8.1 4.05,12.15 12.15,12.15 8.1,0 12.15,-4.05 12.15,-12.15 0,-8.1 -4.05,-12.15 -12.15,-12.15 z m -13.95,28.35 c -8.1,0 -12.15,4.05 -12.15,12.15 0,8.1 4.05,12.15 12.15,12.15 8.1,0 12.15,-4.05 12.15,-12.15 0,-8.1 -4.05,-12.15 -12.15,-12.15 z m -47.7,9 c 0,8.1 4.05,12.15 12.15,12.15 8.1,0 12.15,-4.05 12.15,-12.15 0,-8.1 -4.05,-12.15 -12.15,-12.15 -8.1,0 -12.15,4.05 -12.15,12.15 z m -108.9,70.2 c -8.1,0 -12.15,4.05 -12.15,12.15 0,8.1 4.05,12.15 12.15,12.15 8.1,0 12.15,-4.05 12.15,-12.15 0,-8.1 -4.05,-12.15 -12.15,-12.15 z m -0.9,-21.15 c 0,-8.1 -4.05,-12.15 -12.15,-12.15 -8.1,0 -12.15,4.05 -12.15,12.15 0,8.1 4.05,12.15 12.15,12.15 8.1,0 12.15,-4.05 12.15,-12.15 z m 29.25,3.15 c 0,-8.1 -3.9,-12.15 -11.7,-12.15 -7.8,0 -12.15,4.05 -12.15,12.15 0,8.1 4.05,12.15 12.15,12.15 8.1,0 11.7,-4.05 11.7,-12.15 z m -58.95,11.7 c -8.1,0 -12.15,4.05 -12.15,12.15 0,8.1 4.05,12.15 12.15,12.15 8.1,0 12.15,-4.05 12.15,-12.15 0,-8.1 -4.05,-12.15 -12.15,-12.15 z m -0.9,-24.75 c 0,-8.1 -4.05,-12.15 -12.15,-12.15 -8.1,0 -12.15,4.05 -12.15,12.15 0,8.1 4.05,12.15 12.15,12.15 8.1,0 12.15,-4.05 12.15,-12.15 z m 60.75,30.6 c -8.1,0 -12.15,4.05 -12.15,12.15 0,8.1 4.05,12.15 12.15,12.15 8.1,0 12.15,-4.05 12.15,-12.15 0,-8.1 -4.05,-12.15 -12.15,-12.15 z m 58.05,-31.5 c 0,-8.1 -4.05,-12.15 -12.15,-12.15 -8.1,0 -11.7,4.05 -11.7,12.15 0,8.1 3.9,12.15 11.7,12.15 7.8,0 12.15,-4.05 12.15,-12.15 z m -25.65,25.2 c -8.1,0 -12.15,4.05 -12.15,12.15 0,8.1 4.05,12.15 12.15,12.15 8.1,0 12.15,-4.05 12.15,-12.15 0,-8.1 -4.05,-12.15 -12.15,-12.15 z m -2.25,-14.85 c 0,-8.1 -4.05,-12.15 -12.15,-12.15 -8.1,0 -12.15,4.05 -12.15,12.15 0,8.1 4.05,12.15 12.15,12.15 8.1,0 12.15,-4.05 12.15,-12.15 z m 178.2,-156.15 c 8.4,0 12.6,-4.2 12.6,-12.6 0,-8.4 -4.2,-12.6 -12.6,-12.6 -8.4,0 -12.6,4.21 -12.6,12.6 0,8.39 4.2,12.6 12.6,12.6 z m 0,-31.05 c 8.4,0 12.6,-4.2 12.6,-12.6 0,-8.4 -4.2,-12.6 -12.6,-12.6 -8.4,0 -12.6,4.2 -12.6,12.6 0,8.4 4.2,12.6 12.6,12.6 z m 0,-31.5 c 8.4,0 12.6,-4.2 12.6,-12.6 0,-8.4 -4.2,-12.6 -12.6,-12.6 -8.4,0 -12.6,4.2 -12.6,12.6 0,8.4 4.2,12.6 12.6,12.6 z m 0,-31.05 c 8.4,0 12.6,-4.2 12.6,-12.6 0,-8.4 -4.2,-12.6 -12.6,-12.6 -8.4,0 -12.6,4.2 -12.6,12.6 0,8.4 4.2,12.6 12.6,12.6 z m 143.1,237.15 c -5.1,0 -7.65,2.55 -7.65,7.65 0,5.1 2.54,7.65 7.65,7.65 5.11,0 7.65,-2.55 7.65,-7.65 0,-5.1 -2.55,-7.65 -7.65,-7.65 z m 33.75,7.65 c 0,-5.1 -2.4,-7.65 -7.2,-7.65 -5.1,0 -7.65,2.55 -7.65,7.65 0,5.1 2.55,7.65 7.65,7.65 4.8,0 7.2,-2.55 7.2,-7.65 z m -10.35,11.7 c -8.4,0 -12.6,4.2 -12.6,12.6 0,8.4 4.2,12.6 12.6,12.6 8.4,0 12.6,-4.2 12.6,-12.6 0,-8.4 -4.2,-12.6 -12.6,-12.6 z m -36.9,0 c -8.4,0 -12.6,4.2 -12.6,12.6 0,8.4 4.2,12.6 12.6,12.6 8.4,0 12.6,-4.2 12.6,-12.6 0,-8.4 -4.21,-12.6 -12.6,-12.6 z M 441.59,101.36 c 8.4,0 12.6,-4.2 12.6,-12.6 0,-8.4 -4.2,-12.6 -12.6,-12.6 -8.4,0 -12.6,4.2 -12.6,12.6 0,8.4 4.2,12.6 12.6,12.6 z m 0,-31.05 c 8.4,0 12.6,-4.2 12.6,-12.6 0,-8.4 -4.2,-12.6 -12.6,-12.6 -8.4,0 -12.6,4.2 -12.6,12.6 0,8.4 4.2,12.6 12.6,12.6 z m 0,-31.5 c 8.4,0 12.6,-4.2 12.6,-12.6 0,-8.4 -4.2,-12.6 -12.6,-12.6 -8.4,0 -12.6,4.2 -12.6,12.6 0,8.4 4.2,12.6 12.6,12.6 z m 0,125.1 c 8.4,0 12.6,-4.2 12.6,-12.6 0,-8.4 -4.2,-12.6 -12.6,-12.6 -8.4,0 -12.6,4.21 -12.6,12.6 0,8.39 4.2,12.6 12.6,12.6 z M 409.64,38.81 c 8.4,0 12.6,-4.2 12.6,-12.6 0,-8.4 -4.2,-12.6 -12.6,-12.6 -8.4,0 -12.6,4.2 -12.6,12.6 0,8.4 4.2,12.6 12.6,12.6 z m 31.95,94.05 c 8.4,0 12.6,-4.2 12.6,-12.6 0,-8.4 -4.2,-12.6 -12.6,-12.6 -8.4,0 -12.6,4.2 -12.6,12.6 0,8.4 4.2,12.6 12.6,12.6 z m 92.25,182.25 c 0,-5.1 -2.55,-7.65 -7.65,-7.65 -5.1,0 -7.65,2.55 -7.65,7.65 0,5.1 2.55,7.65 7.65,7.65 5.1,0 7.65,-2.55 7.65,-7.65 z m -124.2,-113.4 c -8.4,0 -12.6,4.21 -12.6,12.6 0,8.39 4.2,12.6 12.6,12.6 8.4,0 12.6,-4.2 12.6,-12.6 0,-8.4 -4.2,-12.6 -12.6,-12.6 z m 31.95,125.1 c -8.4,0 -12.6,4.2 -12.6,12.6 0,8.4 4.2,12.6 12.6,12.6 8.4,0 12.6,-4.2 12.6,-12.6 0,-8.4 -4.2,-12.6 -12.6,-12.6 z m -31.95,-94.05 c -8.4,0 -12.6,4.2 -12.6,12.6 0,8.4 4.2,12.6 12.6,12.6 8.4,0 12.6,-4.2 12.6,-12.6 0,-8.4 -4.2,-12.6 -12.6,-12.6 z m 0,31.5 c -8.4,0 -12.6,4.2 -12.6,12.6 0,8.4 4.2,12.6 12.6,12.6 8.4,0 12.6,-4.2 12.6,-12.6 0,-8.4 -4.2,-12.6 -12.6,-12.6 z m 0,62.55 c -8.4,0 -12.6,4.2 -12.6,12.6 0,8.4 4.2,12.6 12.6,12.6 8.4,0 12.6,-4.2 12.6,-12.6 0,-8.4 -4.2,-12.6 -12.6,-12.6 z m 0,-31.5 c -8.4,0 -12.6,4.2 -12.6,12.6 0,8.4 4.2,12.6 12.6,12.6 8.4,0 12.6,-4.2 12.6,-12.6 0,-8.4 -4.2,-12.6 -12.6,-12.6 z m 31.95,0 c -8.4,0 -12.6,4.2 -12.6,12.6 0,8.4 4.2,12.6 12.6,12.6 8.4,0 12.6,-4.2 12.6,-12.6 0,-8.4 -4.2,-12.6 -12.6,-12.6 z m 0,-31.05 c -8.4,0 -12.6,4.2 -12.6,12.6 0,8.4 4.2,12.6 12.6,12.6 8.4,0 12.6,-4.2 12.6,-12.6 0,-8.4 -4.2,-12.6 -12.6,-12.6 z m 65.7,50.85 c 0,-5.1 -2.55,-7.65 -7.65,-7.65 -5.1,0 -7.65,2.55 -7.65,7.65 0,5.1 2.55,7.65 7.65,7.65 5.1,0 7.65,-2.55 7.65,-7.65 z m -33.75,11.7 c -8.4,0 -12.6,4.2 -12.6,12.6 0,8.4 4.2,12.6 12.6,12.6 8.4,0 12.6,-4.2 12.6,-12.6 0,-8.4 -4.2,-12.6 -12.6,-12.6 z m 30.15,0 c -8.4,0 -12.6,4.2 -12.6,12.6 0,8.4 4.2,12.6 12.6,12.6 8.4,0 12.6,-4.2 12.6,-12.6 0,-8.4 -4.2,-12.6 -12.6,-12.6 z M 477.17,38.49 v 6.95 c 5.97,1.11 8.97,5.2 8.97,12.28 0,7.08 -3,11.17 -8.97,12.28 v 6.49 c 5.97,1.11 8.97,5.2 8.97,12.28 0,7.08 -3,11.17 -8.97,12.28 v 6.94 c 5.97,1.11 8.97,5.2 8.97,12.28 0,7.08 -3,11.17 -8.97,12.28 v 6.49 c 5.97,1.11 8.97,5.2 8.97,12.28 0,7.08 -3,11.17 -8.97,12.28 v 6.94 c 5.97,1.11 8.97,5.2 8.97,12.28 0,7.08 -3,11.17 -8.97,12.28 v 6.94 c 5.97,1.11 8.97,5.2 8.97,12.28 0,7.08 -3,11.17 -8.97,12.28 v 6.49 c 5.97,1.11 8.97,5.2 8.97,12.28 0,7.08 -3,11.17 -8.97,12.28 v 6.95 c 5.97,1.11 8.97,5.2 8.97,12.28 0,7.08 -3,11.17 -8.97,12.28 v 6.49 c 5.97,1.11 8.97,5.2 8.97,12.28 0,8.4 -4.2,12.6 -12.6,12.6 -8.4,0 -12.6,-4.2 -12.6,-12.6 0,-7.56 3.42,-11.71 10.23,-12.46 v -6.12 c -6.81,-0.75 -10.23,-4.9 -10.23,-12.46 0,-7.56 3.42,-11.71 10.23,-12.46 v -6.57 c -6.81,-0.75 -10.23,-4.9 -10.23,-12.46 0,-7.56 3.42,-11.71 10.23,-12.46 v -6.12 c -6.81,-0.75 -10.23,-4.9 -10.23,-12.46 0,-7.56 3.42,-11.71 10.23,-12.46 v -6.57 c -5.78,-0.64 -9.11,-3.72 -9.99,-9.27 h -7.23 c -0.99,6.27 -5.11,9.41 -12.36,9.41 -7.25,0 -11.37,-3.14 -12.36,-9.41 H 422 c -0.99,6.27 -5.11,9.41 -12.36,9.41 -7.25,0 -11.37,-3.14 -12.36,-9.41 h -31.3 c -0.17,7.76 -4.2,11.66 -12.13,11.66 -7.93,0 -11.97,-3.89 -12.13,-11.66 h -6.36 c -0.45,7.17 -4.48,10.76 -12.1,10.76 -7.62,0 -11.65,-3.59 -12.11,-10.76 h -5.48 c -0.29,6.86 -3.72,10.57 -10.32,11.12 -0.3,2.34 -0.6,4.68 -0.91,7.01 4.79,1.38 7.2,5.07 7.2,11.07 0,8.1 -4.05,12.15 -12.15,12.15 -0.46,0 -0.91,-0.02 -1.35,-0.04 -0.96,2.45 -1.93,4.91 -2.89,7.36 2.53,2 3.79,5.25 3.79,9.78 0,8.1 -4.05,12.15 -12.15,12.15 -2.38,0 -4.4,-0.36 -6.08,-1.06 -1.21,1.32 -2.42,2.63 -3.62,3.95 1.36,1.96 2.05,4.59 2.05,7.91 0,8.1 -4.05,12.15 -12.15,12.15 -4.2,0 -7.31,-1.1 -9.33,-3.28 -1.85,1.3 -3.7,2.61 -5.55,3.91 0.32,1.29 0.48,2.72 0.48,4.33 0,8.1 -4.05,12.15 -12.15,12.15 -6.26,0 -10.09,-2.43 -11.51,-7.26 -2.67,0.33 -5.34,0.67 -8.01,1 0.11,0.83 0.17,1.72 0.17,2.66 0,8.1 -4.05,12.15 -12.15,12.15 -8.1,0 -12.15,-4.05 -12.15,-12.15 0,-0.36 0.02,-0.71 0.03,-1.06 h -6.79 c -0.1,7.9 -4.14,11.86 -12.14,11.86 -8,0 -12.15,-4.05 -12.15,-12.15 0,-1.01 0.06,-1.95 0.19,-2.84 -1.8,-0.48 -3.6,-0.96 -5.41,-1.44 -1.49,4.65 -5.29,6.98 -11.43,6.98 -8.1,0 -12.15,-4.05 -12.15,-12.15 0,-1.8 0.21,-3.39 0.61,-4.79 -1.45,-0.99 -2.91,-1.98 -4.36,-2.97 -2.02,1.86 -4.96,2.8 -8.85,2.8 -8.1,0 -12.15,-4.05 -12.15,-12.15 0,-2.49 0.39,-4.59 1.15,-6.31 -1.71,-1.64 -3.42,-3.28 -5.14,-4.91 -1.23,0.28 -2.6,0.42 -4.11,0.42 -8.1,0 -12.15,-4.05 -12.15,-12.15 0,-3.88 0.94,-6.82 2.8,-8.84 -0.71,-2.77 -1.43,-5.53 -2.14,-8.3 -7.33,-0.37 -11.01,-4.41 -11.01,-12.11 0,-6.06 2.27,-9.85 6.8,-11.38 -0.11,-1.53 -0.22,-3.06 -0.33,-4.59 -6.11,-0.92 -9.17,-4.9 -9.17,-11.94 0,-7.04 3.28,-11.27 9.81,-12.01 0.4,-2.39 0.8,-4.78 1.19,-7.16 -4.63,-1.49 -6.95,-5.3 -6.95,-11.42 0,-8.1 4.05,-12.15 12.15,-12.15 0.24,0 0.47,0.02 0.7,0.02 l 2.78,-7.57 c -2.02,-2.02 -3.03,-5.06 -3.03,-9.1 0,-8.1 4.05,-12.15 12.15,-12.15 1.1,0 2.11,0.08 3.06,0.23 1.79,-1.88 3.59,-3.76 5.38,-5.65 -0.52,-1.53 -0.79,-3.33 -0.79,-5.38 0,-8.1 4.05,-12.15 12.15,-12.15 2.79,0 5.09,0.49 6.92,1.46 2.65,-1.99 5.29,-3.97 7.94,-5.96 0,-0.15 -0.01,-0.3 -0.01,-0.45 0,-8.1 4.05,-12.15 12.15,-12.15 3.51,0 6.26,0.76 8.25,2.28 3.69,-0.92 7.38,-1.85 11.07,-2.77 1.22,-5.38 5.13,-8.07 11.73,-8.07 5.91,0 9.65,2.17 11.25,6.48 2.82,0.36 5.65,0.73 8.47,1.09 1.56,-4.44 5.33,-6.67 11.33,-6.67 7.71,0 11.74,3.68 12.11,11.01 2.53,0.63 5.07,1.27 7.6,1.9 2.03,-2.01 5.05,-3.01 9.08,-3.01 8.1,0 12.15,4.05 12.15,12.15 0,0.63 -0.03,1.24 -0.08,1.82 1.97,1.5 3.95,3 5.92,4.5 1.8,-0.91 4.05,-1.37 6.76,-1.37 8.1,0 12.15,4.05 12.15,12.15 0,2.77 -0.49,5.05 -1.43,6.88 1.28,1.61 2.55,3.22 3.83,4.84 1.6,-0.6 3.5,-0.91 5.7,-0.91 8.1,0 12.15,4.05 12.15,12.15 0,5.13 -1.63,8.63 -4.88,10.51 1.02,2.2 2.04,4.39 3.06,6.59 0,0 0.01,0 0.02,0 8.1,0 12.15,4.05 12.15,12.15 0,6.08 -2.29,9.88 -6.86,11.4 0.11,1.52 0.22,3.04 0.33,4.56 4.48,0.66 7.33,2.96 8.54,6.89 h 6.65 c 1.36,-5.02 5.21,-7.54 11.59,-7.54 6.38,0 10.23,2.52 11.59,7.54 h 7.69 c 1.56,-4.42 5.33,-6.64 11.32,-6.64 5.99,0 9.75,2.22 11.32,6.64 h 32.06 c 0.88,-6.52 5.01,-9.79 12.42,-9.79 7.41,0 11.54,3.27 12.42,9.79 h 7.11 c 0.88,-6.52 5.01,-9.79 12.42,-9.79 7.41,0 11.54,3.27 12.42,9.79 h 7.11 c 0.78,-5.79 4.13,-9 10.05,-9.66 v -6.57 c -6.81,-0.75 -10.23,-4.9 -10.23,-12.46 0,-7.56 3.42,-11.71 10.23,-12.46 v -6.12 c -6.81,-0.75 -10.23,-4.9 -10.23,-12.46 0,-7.56 3.42,-11.71 10.23,-12.46 v -6.57 c -6.81,-0.75 -10.23,-4.9 -10.23,-12.46 0,-7.56 3.42,-11.71 10.23,-12.46 v -6.12 c -6.81,-0.75 -10.23,-4.9 -10.23,-12.46 0,-7.56 3.42,-11.71 10.23,-12.46 v -6.57 c -6.81,-0.75 -10.23,-4.9 -10.23,-12.46 0,-8.4 4.2,-12.6 12.6,-12.6 8.4,0 12.6,4.2 12.6,12.6 0,7.08 -3,11.17 -8.97,12.28 z M 289.39,196.78 c -5.33,-1.24 -8,-5.14 -8,-11.72 0,-7 3.03,-10.96 9.07,-11.92 -0.09,-1.28 -0.18,-2.57 -0.28,-3.85 -7.66,-0.22 -11.5,-4.25 -11.5,-12.13 0,-5.71 2.02,-9.39 6.04,-11.08 -0.94,-2.02 -1.88,-4.04 -2.82,-6.07 -0.46,0.03 -0.93,0.05 -1.42,0.05 -8.1,0 -12.15,-4.05 -12.15,-12.15 0,-3.1 0.6,-5.61 1.79,-7.52 -1.17,-1.48 -2.35,-2.97 -3.52,-4.45 -1.73,0.78 -3.85,1.17 -6.37,1.17 -8.1,0 -12.15,-4.05 -12.15,-12.15 0,-2.56 0.41,-4.72 1.22,-6.47 -1.22,-0.93 -2.45,-1.86 -3.67,-2.79 -1.95,2.87 -5.33,4.31 -10.14,4.31 -8.1,0 -12.15,-4.05 -12.15,-12.15 0,-1.32 0.12,-2.53 0.34,-3.64 -1.83,-0.46 -3.65,-0.91 -5.48,-1.37 -1.42,4.83 -5.25,7.26 -11.51,7.26 -7.96,0 -12,-3.92 -12.14,-11.73 -2.26,-0.29 -4.52,-0.58 -6.78,-0.87 -0.15,7.8 -4.19,11.71 -12.14,11.71 -7.34,0 -11.34,-3.33 -12.03,-9.98 -2.47,0.62 -4.94,1.23 -7.41,1.85 0.35,1.34 0.54,2.84 0.54,4.52 0,8.1 -4.05,12.15 -12.15,12.15 -5.34,0 -8.91,-1.77 -10.73,-5.3 -1.75,1.32 -3.51,2.63 -5.26,3.95 0.76,1.72 1.15,3.82 1.15,6.3 0,8.1 -4.05,12.15 -12.15,12.15 -3.21,0 -5.77,-0.65 -7.7,-1.91 -1.08,1.13 -2.15,2.26 -3.23,3.39 2.18,2.02 3.28,5.12 3.28,9.33 0,8.1 -4.05,12.15 -12.15,12.15 -1.36,0 -2.6,-0.12 -3.74,-0.35 -0.75,2.05 -1.5,4.1 -2.25,6.15 3.69,1.78 5.54,5.39 5.54,10.86 0,7.85 -3.81,11.88 -11.41,12.13 -0.37,2.22 -0.74,4.44 -1.11,6.67 5.64,1.12 8.47,5.05 8.47,11.81 0,6.76 -3.05,10.99 -9.13,11.93 0.09,1.28 0.18,2.56 0.27,3.84 7.69,0.2 11.55,4.24 11.55,12.13 0,6.25 -2.42,10.08 -7.25,11.51 0.51,1.99 1.03,3.99 1.54,5.98 1.18,-0.25 2.48,-0.39 3.91,-0.39 8.1,0 12.15,4.05 12.15,12.15 0,3.74 -0.88,6.61 -2.61,8.62 1.26,1.21 2.53,2.42 3.79,3.63 1.83,-0.96 4.12,-1.45 6.91,-1.45 8.1,0 12.15,4.05 12.15,12.15 0,1.5 -0.14,2.85 -0.42,4.07 1.57,1.07 3.14,2.14 4.71,3.2 1.99,-1.55 4.76,-2.32 8.3,-2.32 7.81,0 11.84,3.77 12.12,11.29 2.33,0.62 4.65,1.24 6.98,1.86 2,-2.47 5.23,-3.7 9.7,-3.7 5.89,0 9.63,2.16 11.24,6.44 h 9.19 c 1.85,-3.39 5.38,-5.09 10.62,-5.09 4.51,0 7.76,1.26 9.75,3.77 3.21,-0.4 6.42,-0.8 9.63,-1.2 0.34,-7.4 4.37,-11.11 12.12,-11.11 3.76,0 6.64,0.89 8.65,2.63 2.01,-1.41 4.02,-2.83 6.03,-4.24 -0.18,-1.03 -0.28,-2.13 -0.28,-3.34 0,-8.1 4.05,-12.15 12.15,-12.15 1.97,0 3.7,0.24 5.19,0.72 1.34,-1.46 2.68,-2.93 4.02,-4.39 -1.04,-1.86 -1.57,-4.23 -1.57,-7.13 0,-8.1 4.05,-12.15 12.15,-12.15 1,0 1.93,0.06 2.8,0.19 0.88,-2.24 1.76,-4.48 2.64,-6.71 -3.32,-1.87 -4.99,-5.38 -4.99,-10.57 0,-7.47 3.73,-11.36 11.18,-11.67 0.29,-2.25 0.58,-4.51 0.87,-6.76 z m 152.2,35.98 c -8.4,0 -12.6,4.2 -12.6,12.6 0,8.4 4.2,12.6 12.6,12.6 8.4,0 12.6,-4.2 12.6,-12.6 0,-8.4 -4.2,-12.6 -12.6,-12.6 z m 0,-31.05 c -8.4,0 -12.6,4.21 -12.6,12.6 0,8.39 4.2,12.6 12.6,12.6 8.4,0 12.6,-4.2 12.6,-12.6 0,-8.4 -4.2,-12.6 -12.6,-12.6 z m 237.15,-79.2 c 0,-8.1 -4.21,-12.15 -12.6,-12.15 -8.39,0 -12.15,4.05 -12.15,12.15 0,8.1 4.05,12.6 12.15,12.6 8.1,0 12.6,-4.2 12.6,-12.6 z m 4.5,-83.7 c 8.4,0 12.6,-4.2 12.6,-12.6 0,-8.4 -4.2,-12.15 -12.6,-12.15 -8.4,0 -12.15,4.05 -12.15,12.15 0,8.1 4.05,12.6 12.15,12.6 z m -28.8,141.3 c 0,7.8 3.9,11.7 11.7,11.7 7.8,0 11.7,-3.9 11.7,-11.7 0,-7.8 -3.9,-11.7 -11.7,-11.7 -7.8,0 -11.7,3.9 -11.7,11.7 z m -8.1,-49.05 c 0,-8.4 -4.05,-12.6 -12.15,-12.6 -8.1,0 -12.6,4.21 -12.6,12.6 0,8.39 4.2,12.15 12.6,12.15 8.4,0 12.15,-4.05 12.15,-12.15 z m -2.7,39.15 c 8.4,0 12.6,-4.2 12.6,-12.6 0,-8.4 -4.21,-12.15 -12.6,-12.15 -8.39,0 -12.15,4.05 -12.15,12.15 0,8.1 4.05,12.6 12.15,12.6 z m 36.9,-91.8 c 8.1,0 12.15,-4.2 12.15,-12.6 0,-8.4 -4.05,-12.15 -12.15,-12.15 -8.1,0 -12.6,4.05 -12.6,12.15 0,8.1 4.2,12.6 12.6,12.6 z m 3.6,246.15 c 6.6,0 9.9,-3.3 9.9,-9.9 0,-6.6 -3.3,-9.9 -9.9,-9.9 -6.6,0 -9.9,3.3 -9.9,9.9 0,6.6 3.3,9.9 9.9,9.9 z m -4.05,-45.9 c 0,-7.5 -3.9,-11.25 -11.7,-11.25 -7.8,0 -11.7,3.75 -11.7,11.25 0,7.5 3.9,11.7 11.7,11.7 7.8,0 11.7,-3.9 11.7,-11.7 z m -34.2,-7.65 c 8.4,0 12.6,-4.05 12.6,-12.15 0,-8.1 -4.21,-12.6 -12.6,-12.6 -8.39,0 -12.15,4.2 -12.15,12.6 0,8.4 4.05,12.15 12.15,12.15 z m 19.8,-191.25 c -8.4,0 -12.6,4.05 -12.6,12.15 0,8.1 4.2,12.6 12.6,12.6 8.4,0 12.15,-4.2 12.15,-12.6 0,-8.4 -4.05,-12.15 -12.15,-12.15 z m -9,234.9 c 7.5,0 11.25,-3.75 11.25,-11.25 0,-7.5 -3.75,-11.25 -11.25,-11.25 -7.5,0 -11.25,3.75 -11.25,11.25 0,7.5 3.75,11.25 11.25,11.25 z M 832.19,54.11 c 8.1,0 12.15,-4.05 12.15,-12.15 0,-8.1 -4.05,-12.6 -12.15,-12.6 -8.1,0 -12.15,4.2 -12.15,12.6 0,8.4 4.05,12.15 12.15,12.15 z m -27.9,-14.85 c 8.4,0 12.6,-4.05 12.6,-12.15 0,-8.1 -4.2,-12.15 -12.6,-12.15 -8.4,0 -12.15,4.05 -12.15,12.15 0,8.1 4.05,12.15 12.15,12.15 z m -112.5,8.1 c 0,7.5 3.75,11.25 11.25,11.25 7.5,0 10.8,-3.75 10.8,-11.25 0,-7.5 -3.6,-11.25 -10.8,-11.25 -7.2,0 -11.25,3.75 -11.25,11.25 z m 83.7,-17.1 c 8.1,0 12.15,-4.05 12.15,-12.15 0,-8.1 -4.05,-12.15 -12.15,-12.15 -8.1,0 -12.6,4.05 -12.6,12.15 0,8.1 4.2,12.15 12.6,12.15 z m -67.05,261.9 c 0,-7.8 -3.9,-11.7 -11.7,-11.7 -7.8,0 -11.7,3.9 -11.7,11.7 0,7.8 3.9,11.7 11.7,11.7 7.8,0 11.7,-3.9 11.7,-11.7 z m 97.2,-224.1 c 0,8.1 4.05,12.15 12.15,12.15 8.1,0 12.6,-4.05 12.6,-12.15 0,-8.1 -4.2,-12.15 -12.6,-12.15 -8.4,0 -12.15,4.05 -12.15,12.15 z m -26.1,-17.1 c 0,7.5 3.75,11.25 11.25,11.25 7.5,0 11.25,-3.75 11.25,-11.25 0,-7.5 -3.75,-11.25 -11.25,-11.25 -7.5,0 -11.25,3.75 -11.25,11.25 z m -59.4,-9 c 0,7.5 3.75,11.25 11.25,11.25 7.5,0 10.8,-3.75 10.8,-11.25 0,-7.5 -3.6,-11.25 -10.8,-11.25 -7.2,0 -11.25,3.75 -11.25,11.25 z m -6.3,-13.05 c 8.4,0 12.6,-4.05 12.6,-12.15 0,-8.1 -4.2,-12.6 -12.6,-12.6 -8.4,0 -12.15,4.2 -12.15,12.6 0,8.4 4.05,12.15 12.15,12.15 z m 36.9,13.05 c 0,7.5 3.75,11.25 11.25,11.25 7.5,0 11.25,-3.75 11.25,-11.25 0,-7.5 -3.75,-11.25 -11.25,-11.25 -7.5,0 -11.25,3.75 -11.25,11.25 z m -6.3,-14.4 c 8.4,0 12.6,-4.2 12.6,-12.6 0,-8.4 -4.2,-12.15 -12.6,-12.15 -8.4,0 -12.15,4.05 -12.15,12.15 0,8.1 4.05,12.6 12.15,12.6 z m -61.2,108.9 c -8.1,0 -12.15,4.21 -12.15,12.6 0,8.39 4.05,12.15 12.15,12.15 8.1,0 12.6,-4.05 12.6,-12.15 0,-8.1 -4.2,-12.6 -12.6,-12.6 z m -2.7,59.4 c 0,7.8 3.9,11.7 11.7,11.7 7.8,0 11.7,-3.9 11.7,-11.7 0,-7.8 -3.9,-11.7 -11.7,-11.7 -7.8,0 -11.7,3.9 -11.7,11.7 z m 28.35,12.6 c 0,7.8 3.9,11.7 11.7,11.7 7.8,0 11.7,-3.9 11.7,-11.7 0,-7.8 -3.9,-11.7 -11.7,-11.7 -7.8,0 -11.7,3.9 -11.7,11.7 z m 0,-52.65 c -8.4,0 -12.6,4.2 -12.6,12.6 0,8.4 4.2,12.15 12.6,12.15 8.4,0 12.15,-4.05 12.15,-12.15 0,-8.1 -4.05,-12.6 -12.15,-12.6 z m 28.35,14.4 c -8.4,0 -12.6,4.05 -12.6,12.15 0,8.1 4.2,12.6 12.6,12.6 8.4,0 12.15,-4.2 12.15,-12.6 0,-8.4 -4.05,-12.15 -12.15,-12.15 z m -0.45,49.5 c 0,7.8 3.9,11.7 11.7,11.7 7.8,0 11.7,-3.9 11.7,-11.7 0,-7.8 -3.9,-11.7 -11.7,-11.7 -7.8,0 -11.7,3.9 -11.7,11.7 z m 117.9,45 c 0,-6.6 -2.51,-10.6 -7.52,-12.01 v -7.68 c 4.71,-1.58 7.07,-5.51 7.07,-11.8 0,-7.3 -3.43,-11.3 -10.25,-12.02 l -2.83,-6.44 c 2.72,-1.99 4.09,-5.28 4.09,-9.89 0,-8.1 -4.21,-12.15 -12.6,-12.15 -2.17,0 -4.05,0.3 -5.64,0.88 l -4.05,-4.05 c 0.76,-1.72 1.14,-3.81 1.14,-6.28 0,-8.1 -4.05,-12.15 -12.15,-12.15 -3.87,0 -6.83,0.87 -8.92,2.59 -2.05,-1.29 -4.11,-2.59 -6.16,-3.88 0.15,-0.99 0.23,-2.06 0.23,-3.21 0,-8.1 -4.05,-12.15 -12.15,-12.15 -4.69,0 -8.02,1.37 -9.99,4.09 -2.23,-0.92 -4.46,-1.84 -6.69,-2.77 0.01,-0.29 0.03,-0.57 0.03,-0.87 0,-8.4 -4.2,-12.6 -12.6,-12.6 -4.48,0 -7.71,1.29 -9.71,3.86 -2.32,-1.04 -4.63,-2.08 -6.95,-3.11 0,-0.1 0,-0.19 0,-0.29 0,-8.1 -4.05,-12.15 -12.15,-12.15 -2.32,0 -4.3,0.32 -5.98,0.94 -1.97,-1.72 -3.94,-3.45 -5.91,-5.17 0.13,-0.92 0.19,-1.91 0.19,-2.97 0,-7.69 -3.65,-11.72 -10.95,-12.11 -0.43,-1.87 -0.86,-3.73 -1.29,-5.6 4.25,-1.72 6.39,-5.56 6.39,-11.54 0,-2.82 -0.52,-5.13 -1.54,-6.97 1.47,-1.55 2.95,-3.1 4.42,-4.65 1.61,0.54 3.49,0.82 5.66,0.82 7.48,0 11.49,-3.46 12.07,-10.36 2.46,-0.59 4.91,-1.19 7.37,-1.78 1.33,5.08 5.2,7.64 11.61,7.64 5.84,0 9.64,-1.96 11.42,-5.88 2.04,0.56 4.09,1.12 6.13,1.67 0,0.05 0,0.1 0,0.15 0,8.4 4.2,12.6 12.6,12.6 3.43,0 6.12,-0.76 8.09,-2.26 1.6,1.27 3.21,2.54 4.81,3.81 -0.5,1.49 -0.75,3.23 -0.75,5.2 0,8.4 4.2,12.6 12.6,12.6 8.4,0 12.15,-4.2 12.15,-12.6 0,-8.4 -4.05,-12.15 -12.15,-12.15 -3.51,0 -6.28,0.72 -8.32,2.13 -1.67,-1.32 -3.33,-2.64 -5,-3.96 0.48,-1.55 0.72,-3.33 0.72,-5.38 0,-8.1 -4.05,-12.15 -12.15,-12.15 -5.94,0 -9.76,2.03 -11.5,6.07 -2.02,-0.55 -4.04,-1.1 -6.06,-1.65 0,-0.13 0.01,-0.24 0.01,-0.37 0,-8.1 -4.2,-12.15 -12.6,-12.15 -7.57,0 -11.6,3.54 -12.1,10.61 -2.43,0.59 -4.85,1.17 -7.28,1.76 -1.27,-5.24 -5.16,-7.87 -11.68,-7.87 -8.4,0 -12.6,4.05 -12.6,12.15 0,3.25 0.69,5.83 2.04,7.78 -1.33,1.4 -2.66,2.79 -3.99,4.19 -1.8,-0.78 -3.99,-1.17 -6.6,-1.17 -8.1,0 -12.15,4.05 -12.15,12.15 0,8.1 4.05,12.6 12.15,12.6 0.1,0 0.2,0 0.3,0 0.39,1.69 0.78,3.39 1.17,5.08 -5.17,1.37 -7.77,5.22 -7.77,11.57 0,8.4 4.2,12.6 12.6,12.6 4.4,0 7.6,-1.25 9.61,-3.73 1.15,1.01 2.3,2.01 3.45,3.02 -1.21,1.91 -1.81,4.39 -1.81,7.46 0,8.4 4.2,12.6 12.6,12.6 5.7,0 9.39,-2.09 11.07,-6.25 1.94,0.87 3.87,1.74 5.81,2.6 -0.15,0.99 -0.23,2.05 -0.23,3.19 0,8.1 4.05,12.15 12.15,12.15 5.59,0 9.32,-1.81 11.18,-5.4 2.02,0.84 4.04,1.67 6.06,2.51 -0.09,0.77 -0.15,1.58 -0.15,2.45 0,8.4 4.05,12.6 12.15,12.6 4.41,0 7.61,-1.26 9.62,-3.75 1.77,1.12 3.54,2.23 5.31,3.35 -0.35,1.32 -0.54,2.8 -0.54,4.45 0,8.1 4.2,12.15 12.6,12.15 2.8,0 5.1,-0.5 6.93,-1.46 l 3.4,3.4 c -1.18,1.91 -1.78,4.41 -1.78,7.51 0,8.1 4.05,12.15 12.15,12.15 1.04,0 2.01,-0.06 2.91,-0.19 0.68,1.55 1.36,3.1 2.04,4.65 -5.4,1.21 -8.11,5.12 -8.11,11.74 0,8.23 3.9,12.42 11.68,12.58 v 6.36 c -7.19,0.46 -10.78,4.65 -10.78,12.55 0,5.95 2.19,9.7 6.56,11.28 -0.47,1.82 -0.94,3.65 -1.41,5.47 -0.64,-0.06 -1.3,-0.11 -1.99,-0.11 -8.1,0 -12.15,4.2 -12.15,12.6 0,3.83 0.92,6.75 2.73,8.77 -0.9,1.26 -1.8,2.52 -2.7,3.79 -1.83,-0.87 -4.09,-1.3 -6.78,-1.3 -8.1,0 -12.15,4.21 -12.15,12.6 0,1.73 0.2,3.26 0.56,4.62 -1.89,0.98 -3.78,1.96 -5.67,2.94 -1.96,-1.43 -4.6,-2.16 -7.95,-2.16 -7.46,0 -11.48,3.58 -12.07,10.71 -1.76,0.61 -3.51,1.22 -5.27,1.82 -1.96,-2.95 -5.32,-4.43 -10.12,-4.43 -7.39,0 -11.52,3.25 -12.41,9.74 l -7.69,1.17 c -1.51,-4.57 -5.31,-6.85 -11.4,-6.85 -6.52,0 -10.42,2.63 -11.69,7.89 -2.46,-0.16 -4.92,-0.33 -7.38,-0.49 -0.82,-6.42 -4.96,-9.64 -12.44,-9.64 -5.86,0 -9.58,2.13 -11.21,6.36 -1.52,-0.3 -3.05,-0.61 -4.57,-0.91 -0.28,-7.82 -4.47,-11.75 -12.57,-11.75 -4.68,0 -7.99,1.41 -9.97,4.21 -2.09,-0.86 -4.18,-1.73 -6.27,-2.59 0.02,-0.38 0.04,-0.77 0.04,-1.17 0,-8.1 -4.05,-12.15 -12.15,-12.15 -4.09,0 -7.15,1.04 -9.17,3.11 -1.67,-0.9 -3.34,-1.79 -5.02,-2.69 0.15,-0.96 0.24,-2 0.24,-3.12 0,-8.1 -4.05,-12.15 -12.15,-12.15 -4.67,0 -7.99,1.36 -9.97,4.06 -0.92,-0.45 -1.83,-0.89 -2.75,-1.34 -5.03,-2.45 -10.07,-4.91 -15.1,-7.36 0.24,-1.18 0.37,-2.48 0.37,-3.91 0,-8.4 -4.2,-12.6 -12.6,-12.6 -7.81,0 -11.98,3.64 -12.53,10.89 h -10.49 c -0.55,-7.25 -4.73,-10.89 -12.53,-10.89 -7.8,0 -11.84,3.53 -12.5,10.56 -3.38,-0.1 -6.76,-0.2 -10.14,-0.31 -0.75,-6.82 -4.9,-10.25 -12.47,-10.25 -8.4,0 -12.6,4.2 -12.6,12.6 0,8.4 4.2,12.6 12.6,12.6 7.07,0 11.16,-2.99 12.27,-8.95 3.54,0.11 7.07,0.21 10.61,0.32 1.2,5.75 5.26,8.63 12.22,8.63 6.96,0 10.87,-2.77 12.15,-8.31 h 11.24 c 1.28,5.54 5.33,8.31 12.15,8.31 4.3,0 7.5,-1.11 9.6,-3.32 0.71,0.35 1.42,0.69 2.13,1.04 5.44,2.65 10.88,5.3 16.32,7.95 -0.09,0.77 -0.15,1.57 -0.15,2.43 0,8.1 4.05,12.15 12.15,12.15 4.34,0 7.51,-1.18 9.53,-3.51 1.59,0.85 3.18,1.7 4.76,2.55 -0.22,1.11 -0.34,2.32 -0.34,3.65 0,8.4 4.05,12.6 12.15,12.6 5.37,0 8.95,-1.86 10.76,-5.55 1.87,0.77 3.74,1.55 5.61,2.32 -0.11,0.87 -0.17,1.79 -0.17,2.77 0,8.1 4.05,12.15 12.15,12.15 6.39,0 10.34,-2.35 11.87,-7.04 1.44,0.29 2.89,0.58 4.33,0.87 0.04,8.01 4.09,12.02 12.15,12.02 7.09,0 11.17,-2.9 12.28,-8.67 2.38,0.16 4.76,0.32 7.14,0.48 0.55,6.96 4.57,10.44 12.08,10.44 7.89,0 11.92,-3.85 12.13,-11.53 l 7.03,-1.06 c 1.01,5.99 5.12,8.99 12.34,8.99 8.1,0 12.15,-4.05 12.15,-12.15 0,-0.88 -0.05,-1.7 -0.14,-2.48 1.26,-0.44 2.51,-0.87 3.77,-1.31 1.28,5.22 5.17,7.84 11.67,7.84 8.1,0 12.15,-4.05 12.15,-12.15 0,-2.09 -0.25,-3.91 -0.75,-5.48 1.8,-0.93 3.59,-1.86 5.39,-2.79 2,1.61 4.8,2.42 8.42,2.42 8.4,0 12.6,-4.05 12.6,-12.15 0,-2.86 -0.5,-5.22 -1.47,-7.1 1.2,-1.68 2.4,-3.36 3.6,-5.04 1.25,0.29 2.64,0.44 4.17,0.44 8.1,0 12.15,-4.05 12.15,-12.15 0,-5.07 -1.49,-8.6 -4.44,-10.61 0.56,-2.17 1.12,-4.33 1.68,-6.5 7.84,-0.13 11.77,-4.17 11.77,-12.14 z M 657.14,58.16 c 8.4,0 12.6,-4.05 12.6,-12.15 0,-8.1 -4.21,-12.6 -12.6,-12.6 -8.39,0 -12.15,4.2 -12.15,12.6 0,8.4 4.05,12.15 12.15,12.15 z m -26.1,239.85 c 8.4,0 12.6,-4.2 12.6,-12.6 0,-8.4 -4.2,-12.15 -12.6,-12.15 -8.4,0 -12.15,4.05 -12.15,12.15 0,8.1 4.05,12.6 12.15,12.6 z m 135.9,-116.1 c -8.1,0 -12.15,4.2 -12.15,12.6 0,8.4 4.05,12.15 12.15,12.15 8.1,0 12.6,-4.05 12.6,-12.15 0,-8.1 -4.2,-12.6 -12.6,-12.6 z m -134.1,-70.2 c 8.1,0 12.15,-4.05 12.15,-12.15 0,-8.1 -4.05,-12.15 -12.15,-12.15 -8.1,0 -12.6,4.05 -12.6,12.15 0,8.1 4.2,12.15 12.6,12.15 z m 7.2,-28.8 c 8.1,0 12.15,-4.2 12.15,-12.6 0,-8.4 -4.05,-12.15 -12.15,-12.15 -8.1,0 -12.15,4.05 -12.15,12.15 0,8.1 4.05,12.6 12.15,12.6 z m 126.45,243 c 7.2,0 10.8,-3.75 10.8,-11.25 0,-7.5 -3.6,-11.25 -10.8,-11.25 -7.2,0 -11.25,3.75 -11.25,11.25 0,7.5 3.75,11.25 11.25,11.25 z m -9,-24.3 c 7.8,0 11.7,-3.9 11.7,-11.7 0,-7.8 -3.9,-11.7 -11.7,-11.7 -7.8,0 -11.7,3.9 -11.7,11.7 0,7.8 3.9,11.7 11.7,11.7 z m 15.75,-76.05 c -7.8,0 -11.7,3.75 -11.7,11.25 0,7.5 3.9,11.7 11.7,11.7 7.8,0 11.25,-3.9 11.25,-11.7 0,-7.8 -3.75,-11.25 -11.25,-11.25 z m -34.65,70.65 c 0,-7.8 -3.9,-11.7 -11.7,-11.7 -7.8,0 -11.7,3.9 -11.7,11.7 0,7.8 3.9,11.25 11.7,11.25 7.8,0 11.7,-3.75 11.7,-11.25 z m -1.35,35.1 c 6.6,0 9.9,-3.3 9.9,-9.9 0,-6.6 -3.3,-9.9 -9.9,-9.9 -6.6,0 -10.35,3.3 -10.35,9.9 0,6.6 3.45,9.9 10.35,9.9 z m 51.3,-63 c 0,-7.5 -3.6,-11.25 -10.8,-11.25 -7.2,0 -11.25,3.75 -11.25,11.25 0,7.5 3.75,11.25 11.25,11.25 7.5,0 10.8,-3.75 10.8,-11.25 z m -77.4,62.55 c 6.6,0 9.9,-3.45 9.9,-10.35 0,-6.9 -3.3,-9.9 -9.9,-9.9 -6.6,0 -10.35,3.3 -10.35,9.9 0,6.6 3.45,10.35 10.35,10.35 z m 83.7,-131.4 c -8.4,0 -12.6,4.05 -12.6,12.15 0,8.1 4.2,12.15 12.6,12.15 8.4,0 12.15,-4.05 12.15,-12.15 0,-8.1 -4.05,-12.15 -12.15,-12.15 z m 13.95,28.35 c -8.1,0 -12.15,4.05 -12.15,12.15 0,8.1 4.05,12.15 12.15,12.15 8.1,0 12.6,-4.05 12.6,-12.15 0,-8.1 -4.2,-12.15 -12.6,-12.15 z m -17.1,81.45 c 8.1,0 12.15,-4.2 12.15,-12.6 0,-8.4 -4.05,-12.15 -12.15,-12.15 -8.1,0 -12.15,4.05 -12.15,12.15 0,8.1 4.05,12.6 12.15,12.6 z m 28.8,-37.8 c 0,-8.4 -4.05,-12.6 -12.15,-12.6 -8.1,0 -12.6,4.2 -12.6,12.6 0,8.4 4.2,12.15 12.6,12.15 8.4,0 12.15,-4.05 12.15,-12.15 z"
         id="path1" /></clipPath><linearGradient
       id="linear-gradient"
       x1="432.17001"
       y1="366"
       x2="432.17001"
       y2="0"
       gradientUnits="userSpaceOnUse"><stop
         offset="0"
         stop-color="#1bc1ec"
         id="stop1" /><stop
         offset="1"
         stop-color="#0081b9"
         id="stop2" /></linearGradient></defs><g
     inkscape:label="Layer 1"
     inkscape:groupmode="layer"
     id="layer1"
     transform="translate(-91.3121,-132.83059)"><path
       style="isolation:isolate;fill:#000000;fill-opacity:1;stroke:#000000;stroke-width:0.0368832;stroke-opacity:1"
       inkscape:connector-curvature="0"
       id="path2066-9-9-0-7-6-1-3-5-6-5-3-0-5-2-3-2-2-4"
       d="m 116.90453,140.35554 -9.87803,-5.70321 -2.1445,-1.23813 -2.14451,1.23813 -9.878746,5.70356 -1.041135,0.60129 v 15.08564 l 1.041135,0.60128 10.001776,5.77433 2.02148,1.16738 2.02148,-1.16738 10.00105,-5.77397 1.04187,-0.60164 v -15.08564 z"
       class="cls-31"
       sodipodi:nodetypes="ccccccccccccccc" /><path
       style="isolation:isolate;fill:#0c9dd0;fill-opacity:1;stroke:none;stroke-width:0.0368832;stroke-opacity:1"
       inkscape:connector-curvature="0"
       id="path2066-9-9-0-7-6-1-3-8-36-2-5-7-8-6-7-5-7-6-7"
       d="m 117.35275,140.05196 -10.2463,-5.91579 -2.22445,-1.28429 -2.22446,1.28429 -10.247054,5.91615 -1.07995,0.62371 v 15.64794 l 1.07995,0.6237 10.374664,5.98956 2.09688,1.21089 2.0968,-1.21089 10.37393,-5.98919 1.08071,-0.62407 v -15.64794 z m 0,15.68519 -12.47113,7.20008 -12.471134,-7.20008 v -14.40201 l 12.471134,-7.19897 v 0 l 12.47113,7.19897 z"
       class="cls-31" /><g
       id="g1"
       transform="matrix(0.02063517,0,0,0.02063517,95.447938,144.21942)"
       style="stroke-width:12.822"><g
         class="cls-1"
         clip-path="url(#clippath)"
         id="g2"
         style="stroke-width:12.822"><rect
           class="cls-3"
           x="9.1700001"
           width="846"
           height="366"
           id="rect2"
           y="0"
           style="fill:url(#linear-gradient)" /></g><g
         id="g15"
         style="stroke-width:12.822"><path
           class="cls-4"
           d="m 22.74,459.31 c -4.81,-2.7 -8.62,-6.44 -11.44,-11.22 -2.82,-4.78 -4.22,-10.19 -4.22,-16.24 0,-6.05 1.41,-11.37 4.22,-16.15 2.82,-4.78 6.63,-8.52 11.44,-11.22 4.81,-2.7 10.09,-4.05 15.84,-4.05 5.75,0 11.1,1.35 15.88,4.05 4.78,2.7 8.56,6.44 11.35,11.22 2.79,4.78 4.18,10.16 4.18,16.15 0,5.99 -1.39,11.46 -4.18,16.24 -2.79,4.78 -6.59,8.52 -11.4,11.22 -4.81,2.7 -10.09,4.05 -15.84,4.05 -5.75,0 -11.03,-1.35 -15.84,-4.05 z m 25.61,-9.46 c 2.82,-1.67 5.02,-4.06 6.6,-7.17 1.58,-3.11 2.38,-6.72 2.38,-10.82 0,-4.1 -0.79,-7.7 -2.38,-10.78 -1.59,-3.08 -3.78,-5.44 -6.6,-7.08 -2.82,-1.64 -6.07,-2.46 -9.77,-2.46 -3.7,0 -6.97,0.82 -9.81,2.46 -2.85,1.64 -5.06,4 -6.64,7.08 -1.58,3.08 -2.38,6.67 -2.38,10.78 0,4.11 0.79,7.72 2.38,10.82 1.58,3.11 3.8,5.5 6.64,7.17 2.84,1.67 6.12,2.51 9.81,2.51 3.69,0 6.95,-0.84 9.77,-2.51 z"
           id="path2" /><path
           class="cls-4"
           d="m 131.69,462.74 h -12.32 l -27.9,-42.15 v 42.15 H 79.15 v -61.51 h 12.32 l 27.9,42.24 v -42.24 h 12.32 z"
           id="path3" /><path
           class="cls-4"
           d="m 185.63,401.31 v 9.94 h -16.37 v 51.48 h -12.32 v -51.48 h -16.37 v -9.94 z"
           id="path4" /><path
           class="cls-4"
           d="m 207.28,459.31 c -4.81,-2.7 -8.62,-6.44 -11.44,-11.22 -2.82,-4.78 -4.22,-10.19 -4.22,-16.24 0,-6.05 1.41,-11.37 4.22,-16.15 2.82,-4.78 6.63,-8.52 11.44,-11.22 4.81,-2.7 10.09,-4.05 15.84,-4.05 5.75,0 11.1,1.35 15.88,4.05 4.78,2.7 8.56,6.44 11.35,11.22 2.79,4.78 4.18,10.16 4.18,16.15 0,5.99 -1.39,11.46 -4.18,16.24 -2.79,4.78 -6.59,8.52 -11.4,11.22 -4.81,2.7 -10.09,4.05 -15.84,4.05 -5.75,0 -11.03,-1.35 -15.84,-4.05 z m 25.61,-9.46 c 2.82,-1.67 5.02,-4.06 6.6,-7.17 1.58,-3.11 2.38,-6.72 2.38,-10.82 0,-4.1 -0.79,-7.7 -2.38,-10.78 -1.59,-3.08 -3.78,-5.44 -6.6,-7.08 -2.82,-1.64 -6.07,-2.46 -9.77,-2.46 -3.7,0 -6.97,0.82 -9.81,2.46 -2.85,1.64 -5.06,4 -6.64,7.08 -1.58,3.08 -2.38,6.67 -2.38,10.78 0,4.11 0.79,7.72 2.38,10.82 1.58,3.11 3.8,5.5 6.64,7.17 2.84,1.67 6.12,2.51 9.81,2.51 3.69,0 6.95,-0.84 9.77,-2.51 z"
           id="path5" /><path
           class="cls-4"
           d="m 276,452.97 h 20.24 v 9.77 H 263.68 V 401.32 H 276 v 51.66 z"
           id="path6" /><path
           class="cls-4"
           d="m 316.75,459.31 c -4.81,-2.7 -8.62,-6.44 -11.44,-11.22 -2.82,-4.78 -4.22,-10.19 -4.22,-16.24 0,-6.05 1.41,-11.37 4.22,-16.15 2.82,-4.78 6.63,-8.52 11.44,-11.22 4.81,-2.7 10.09,-4.05 15.84,-4.05 5.75,0 11.1,1.35 15.88,4.05 4.78,2.7 8.56,6.44 11.35,11.22 2.79,4.78 4.18,10.16 4.18,16.15 0,5.99 -1.39,11.46 -4.18,16.24 -2.79,4.78 -6.59,8.52 -11.4,11.22 -4.81,2.7 -10.09,4.05 -15.84,4.05 -5.75,0 -11.03,-1.35 -15.84,-4.05 z m 25.61,-9.46 c 2.82,-1.67 5.02,-4.06 6.6,-7.17 1.58,-3.11 2.38,-6.72 2.38,-10.82 0,-4.1 -0.79,-7.7 -2.38,-10.78 -1.59,-3.08 -3.78,-5.44 -6.6,-7.08 -2.82,-1.64 -6.07,-2.46 -9.77,-2.46 -3.7,0 -6.97,0.82 -9.81,2.46 -2.85,1.64 -5.06,4 -6.64,7.08 -1.58,3.08 -2.38,6.67 -2.38,10.78 0,4.11 0.79,7.72 2.38,10.82 1.58,3.11 3.8,5.5 6.64,7.17 2.84,1.67 6.12,2.51 9.81,2.51 3.69,0 6.95,-0.84 9.77,-2.51 z"
           id="path7" /><path
           class="cls-4"
           d="m 415.92,419.79 c -1.41,-2.58 -3.34,-4.55 -5.81,-5.9 -2.46,-1.35 -5.34,-2.02 -8.62,-2.02 -3.64,0 -6.86,0.82 -9.68,2.46 -2.82,1.64 -5.02,3.99 -6.6,7.04 -1.58,3.05 -2.38,6.57 -2.38,10.56 0,3.99 0.81,7.69 2.42,10.74 1.61,3.05 3.86,5.4 6.73,7.04 2.87,1.64 6.22,2.46 10.03,2.46 4.69,0 8.54,-1.25 11.53,-3.74 2.99,-2.49 4.96,-5.97 5.9,-10.43 h -21.12 v -9.42 h 33.26 v 10.74 c -0.82,4.28 -2.58,8.24 -5.28,11.88 -2.7,3.64 -6.18,6.56 -10.43,8.76 -4.25,2.2 -9.02,3.3 -14.3,3.3 -5.93,0 -11.28,-1.33 -16.06,-4 -4.78,-2.67 -8.54,-6.38 -11.26,-11.13 -2.72,-4.75 -4.09,-10.15 -4.09,-16.19 0,-6.04 1.36,-11.45 4.09,-16.24 2.73,-4.78 6.48,-8.51 11.26,-11.18 4.78,-2.67 10.1,-4 15.97,-4 6.92,0 12.94,1.69 18.04,5.06 5.1,3.37 8.62,8.11 10.56,14.21 h -14.17 z"
           id="path8" /><path
           class="cls-4"
           d="m 489.58,401.31 -20.77,40.04 v 21.38 h -12.32 v -21.38 l -20.86,-40.04 h 13.9 l 13.2,28.07 13.11,-28.07 h 13.73 z"
           id="path9" /><path
           class="cls-4"
           d="m 527.28,461.15 c -3.43,-1.47 -6.15,-3.58 -8.14,-6.34 -2,-2.76 -3.02,-6.01 -3.08,-9.77 h 13.2 c 0.18,2.52 1.07,4.52 2.68,5.98 1.61,1.47 3.83,2.2 6.64,2.2 2.81,0 5.13,-0.69 6.78,-2.07 1.64,-1.38 2.46,-3.18 2.46,-5.41 0,-1.82 -0.56,-3.31 -1.67,-4.49 -1.12,-1.17 -2.51,-2.1 -4.18,-2.77 -1.67,-0.67 -3.98,-1.42 -6.91,-2.24 -3.99,-1.17 -7.23,-2.33 -9.72,-3.48 -2.49,-1.14 -4.64,-2.87 -6.42,-5.19 -1.79,-2.32 -2.68,-5.41 -2.68,-9.28 0,-3.64 0.91,-6.81 2.73,-9.5 1.82,-2.7 4.37,-4.77 7.66,-6.2 3.29,-1.44 7.04,-2.16 11.26,-2.16 6.34,0 11.48,1.54 15.44,4.62 3.96,3.08 6.15,7.38 6.56,12.89 h -13.55 c -0.12,-2.11 -1.01,-3.86 -2.68,-5.24 -1.67,-1.38 -3.89,-2.07 -6.64,-2.07 -2.41,0 -4.33,0.62 -5.76,1.85 -1.44,1.23 -2.16,3.02 -2.16,5.37 0,1.64 0.54,3.01 1.63,4.09 1.08,1.09 2.43,1.97 4.05,2.64 1.61,0.68 3.89,1.45 6.82,2.33 3.99,1.17 7.25,2.35 9.77,3.52 2.52,1.17 4.69,2.93 6.51,5.28 1.82,2.35 2.73,5.43 2.73,9.24 0,3.29 -0.85,6.34 -2.55,9.15 -1.7,2.82 -4.19,5.06 -7.48,6.73 -3.29,1.67 -7.19,2.51 -11.7,2.51 -4.28,0 -8.14,-0.73 -11.57,-2.2 z"
           id="path10" /><path
           class="cls-4"
           d="m 583.56,411.26 v 15.4 h 20.68 v 9.77 h -20.68 v 16.28 h 23.32 v 10.03 h -35.64 v -61.51 h 35.64 v 10.03 z"
           id="path11" /><path
           class="cls-4"
           d="m 655.72,451.03 h -24.46 l -4.05,11.7 h -12.94 l 22.09,-61.51 h 14.34 l 22.09,61.51 h -13.02 z m -3.34,-9.86 -8.89,-25.7 -8.89,25.7 z"
           id="path12" /><path
           class="cls-4"
           d="M 712.74,462.74 699.19,438.8 h -5.81 v 23.94 h -12.32 v -61.42 h 23.06 c 4.75,0 8.8,0.84 12.14,2.51 3.34,1.67 5.85,3.93 7.52,6.78 1.67,2.85 2.51,6.03 2.51,9.55 0,4.05 -1.17,7.7 -3.52,10.96 -2.35,3.26 -5.84,5.5 -10.47,6.73 l 14.7,24.9 h -14.26 z m -19.36,-33.18 h 10.3 c 3.34,0 5.84,-0.81 7.48,-2.42 1.64,-1.61 2.46,-3.86 2.46,-6.73 0,-2.87 -0.82,-5 -2.46,-6.56 -1.64,-1.55 -4.14,-2.33 -7.48,-2.33 h -10.3 z"
           id="path13" /><path
           class="cls-4"
           d="m 738.57,415.7 c 2.73,-4.78 6.45,-8.51 11.18,-11.18 4.72,-2.67 10.02,-4 15.88,-4 6.86,0 12.88,1.76 18.04,5.28 5.16,3.52 8.77,8.39 10.82,14.61 h -14.17 c -1.41,-2.93 -3.39,-5.13 -5.94,-6.6 -2.55,-1.47 -5.5,-2.2 -8.84,-2.2 -3.58,0 -6.76,0.84 -9.55,2.51 -2.79,1.67 -4.96,4.03 -6.51,7.08 -1.56,3.05 -2.33,6.63 -2.33,10.74 0,4.11 0.78,7.61 2.33,10.69 1.55,3.08 3.73,5.46 6.51,7.13 2.79,1.67 5.97,2.51 9.55,2.51 3.34,0 6.29,-0.75 8.84,-2.24 2.55,-1.5 4.53,-3.71 5.94,-6.64 h 14.17 c -2.05,6.28 -5.65,11.16 -10.78,14.65 -5.13,3.49 -11.16,5.24 -18.08,5.24 -5.87,0 -11.16,-1.33 -15.88,-4 -4.72,-2.67 -8.45,-6.38 -11.18,-11.13 -2.73,-4.75 -4.09,-10.15 -4.09,-16.19 0,-6.04 1.36,-11.45 4.09,-16.24 z"
           id="path14" /><path
           class="cls-4"
           d="m 856,401.31 v 61.42 h -12.32 v -26.14 h -26.31 v 26.14 h -12.32 v -61.42 h 12.32 v 25.26 h 26.31 v -25.26 z"
           id="path15" /></g></g></g></svg>
